<?xml version="1.0" encoding="utf-8"?>
<!-- Generator: Adobe Illustrator 16.0.0, SVG Export Plug-In . SVG Version: 6.00 Build 0)  -->
<!DOCTYPE svg PUBLIC "-//W3C//DTD SVG 1.1//EN" "http://www.w3.org/Graphics/SVG/1.1/DTD/svg11.dtd">
<svg version="1.1" id="Layer_1" xmlns="http://www.w3.org/2000/svg" xmlns:xlink="http://www.w3.org/1999/xlink" x="0px" y="0px"
	 width="494.251px" height="95.593px" viewBox="0 0 494.251 95.593" enable-background="new 0 0 494.251 95.593"
	 xml:space="preserve">
	<path fill="#f0f0f0" d="M63.616,17.776c0.75,0,1.202,0.452,1.202,1.195v57.638c0,0.75-0.452,1.209-1.202,1.209h-7.431
		c-0.671,0-1.12-0.308-1.348-0.979L43.353,44.793h-0.374v31.815c0,0.75-0.374,1.209-1.202,1.209h-7.799
		c-0.749,0-1.202-0.459-1.202-1.209V18.971c0-0.743,0.453-1.195,1.202-1.195h7.423c0.684,0,1.126,0.299,1.354,0.981l11.409,31.888
		h0.45V18.971c0-0.743,0.376-1.195,1.196-1.195H63.616z"/>
	<path fill="#f0f0f0" d="M73.192,28.577c0-7.045,3.754-10.801,10.808-10.801h8.406c7.054,0,10.808,3.756,10.808,10.801v38.425
		c0,7.062-3.754,10.816-10.808,10.816H84c-7.054,0-10.808-3.754-10.808-10.816V28.577z M90.526,68.134
		c1.953,0,3.004-0.98,3.004-3.001V30.461c0-1.953-1.051-3.004-3.004-3.004h-4.35c-1.955,0-3.002,1.051-3.002,3.004v34.672
		c0,2.021,1.047,3.001,3.002,3.001H90.526z"/>
	<path fill="#f0f0f0" d="M147.749,17.776c7.054,0,10.81,3.752,10.81,10.799v7.959c0,0.75-0.378,1.206-1.204,1.206h-7.805
		c-0.751,0-1.204-0.456-1.204-1.206v-5.852c0-1.953-0.975-3.002-3.003-3.002h-3.601c-1.877,0-3.003,1.049-3.003,3.002V41.04
		l17.863,5.852c1.271,0.527,1.956,1.355,1.956,2.78V67c0,7.062-3.756,10.816-10.81,10.816h-8.404
		c-6.986,0-10.809-3.754-10.809-10.816v-7.875c0-0.828,0.453-1.195,1.203-1.195h7.798c0.828,0,1.202,0.367,1.202,1.195v5.776
		c0,2.029,1.126,3.001,3.003,3.001h3.601c1.953,0,3.003-0.972,3.003-3.001v-9.975l-17.789-5.852
		c-1.347-0.461-2.021-1.355-2.021-2.782V28.575c0-7.047,3.822-10.799,10.809-10.799H147.749z"/>
	<path fill="#f0f0f0" d="M195.388,17.776c0.818,0,1.498,0.673,1.498,1.501V67c0,7.062-3.751,10.816-10.805,10.816h-8.404
		c-7.058,0-10.809-3.754-10.809-10.816V19.277c0-0.828,0.674-1.501,1.502-1.501h7.197c0.83,0,1.503,0.673,1.503,1.501v45.624
		c0,2.029,1.051,3.001,3.004,3.001h3.906c1.945,0,2.996-0.972,2.996-3.001V19.277c0-0.828,0.681-1.501,1.503-1.501H195.388z"/>
	<path fill="#f0f0f0" d="M235.297,36.688c0,0.747-0.446,1.202-1.195,1.202h-7.507c-0.826,0-1.204-0.455-1.204-1.202v-6.006
		c0-1.953-1.048-3.002-3.002-3.002h-3.897c-2.031,0-3.003,1.049-3.003,3.002v34.219c0,2.029,1.049,3.001,3.003,3.001h3.897
		c1.954,0,3.002-0.972,3.002-3.001v-6.007c0-0.748,0.378-1.195,1.204-1.195h7.507c0.749,0,1.195,0.447,1.195,1.195V67
		c0,7.062-3.822,10.816-10.801,10.816h-8.413c-7.051,0-10.876-3.754-10.876-10.816V28.575c0-7.047,3.825-10.799,10.876-10.799h8.413
		c6.979,0,10.801,3.752,10.801,10.799V36.688z"/>
	<path fill="#f0f0f0" d="M263.426,18.969c0-0.744,0.453-1.193,1.203-1.193h7.73c0.904,0,1.277,0.449,1.277,1.193v57.636
		c0,0.752-0.373,1.211-1.277,1.211h-7.73c-0.75,0-1.203-0.459-1.203-1.211V52.143h-9.605v24.462c0,0.752-0.453,1.211-1.203,1.211
		h-7.729c-0.896,0-1.271-0.459-1.271-1.211V18.969c0-0.744,0.375-1.193,1.271-1.193h7.729c0.75,0,1.203,0.449,1.203,1.193V42.23
		h9.605V18.969z"/>
	<path fill="#f0f0f0" d="M322.268,17.776c0.828,0,1.201,0.452,1.201,1.195v7.507c0,0.751-0.373,1.202-1.201,1.202h-8.711v48.925
		c0,0.829-0.377,1.213-1.195,1.213h-7.805c-0.752,0-1.203-0.384-1.203-1.213V27.68h-8.701c-0.752,0-1.205-0.451-1.205-1.202v-7.507
		c0-0.743,0.453-1.195,1.205-1.195H322.268z"/>
	<path fill="#f0f0f0" d="M350.822,18.971c0-0.743,0.455-1.195,1.205-1.195h7.73c0.9,0,1.279,0.452,1.279,1.195v57.634
		c0,0.752-0.379,1.213-1.279,1.213h-7.73c-0.75,0-1.205-0.461-1.205-1.213V51.996h-9.605v24.609c0,0.752-0.451,1.213-1.201,1.213
		h-7.729c-0.896,0-1.271-0.461-1.271-1.213V18.971c0-0.743,0.375-1.195,1.271-1.195h7.729c0.75,0,1.201,0.452,1.201,1.195v23.12
		h9.605V18.971z"/>
	<path fill="#f0f0f0" d="M378.41,17.776c0.752,0,1.201,0.452,1.201,1.195v57.634c0,0.752-0.449,1.213-1.201,1.213h-7.799
		c-0.828,0-1.203-0.461-1.203-1.213V18.971c0-0.743,0.375-1.195,1.203-1.195H378.41z"/>
	<path fill="#f0f0f0" d="M418.771,17.776c0.752,0,1.205,0.452,1.205,1.195v57.634c0,0.752-0.453,1.213-1.205,1.213h-7.432
		c-0.672,0-1.117-0.308-1.348-0.982l-11.48-32.042h-0.375v31.812c0,0.752-0.377,1.213-1.205,1.213h-7.797
		c-0.752,0-1.205-0.461-1.205-1.213V18.971c0-0.743,0.453-1.195,1.205-1.195h7.422c0.684,0,1.125,0.297,1.354,0.979l11.41,31.89
		h0.451V18.971c0-0.743,0.375-1.195,1.195-1.195H418.771z"/>
	<path fill="#f0f0f0" d="M428.342,28.577c0-7.049,3.752-10.801,10.807-10.801h9.906c6.979,0,10.807,3.752,10.807,10.801v7.811
		c0,0.753-0.449,1.195-1.201,1.195h-7.51c-0.826,0-1.201-0.442-1.201-1.195v-5.705c0-1.953-1.049-3.002-3.004-3.002h-5.398
		c-2.025,0-3.004,1.049-3.004,3.002v34.217c0,2.024,1.051,3.003,3.004,3.003h5.398c1.955,0,3.004-0.979,3.004-3.003V51.486h-3.898
		c-0.828,0-1.203-0.46-1.203-1.212v-4.133c0-0.82,0.375-1.204,1.203-1.204h12.609c0.752,0,1.201,0.384,1.201,1.204V67
		c0,7.064-3.828,10.818-10.807,10.818h-9.906c-7.055,0-10.807-3.754-10.807-10.818V28.577z"/>
	<path fill="#f0f0f0" d="M478.545,51.472c0,0.275-0.225,0.5-0.5,0.5H16.206c-0.275,0-0.5-0.225-0.5-0.5v-8.804
		c0-0.275,0.225-0.5,0.5-0.5h461.839c0.275,0,0.5,0.225,0.5,0.5V51.472z"/>
</svg>
